<svg width="241" height="60" viewBox="0 0 241 60" fill="none" xmlns="http://www.w3.org/2000/svg">
<path d="M30.9417 29.9625C30.9414 31.7925 30.5791 33.6045 29.8755 35.295C29.1719 36.9856 28.1408 38.5215 26.8411 39.8152C25.5414 41.1088 23.9985 42.1349 22.3006 42.8347C20.6027 43.5345 18.7829 43.8944 16.9453 43.8937V38.7375C19.2823 38.7375 21.5235 37.813 23.176 36.1674C24.8285 34.5217 25.7569 32.2898 25.7569 29.9625C25.7569 27.6352 24.8285 25.4033 23.176 23.7576C21.5235 22.112 19.2823 21.1875 16.9453 21.1875V16.0313C18.7829 16.0306 20.6027 16.3905 22.3006 17.0903C23.9985 17.7901 25.5414 18.8162 26.8411 20.1098C28.1408 21.4035 29.1719 22.9394 29.8755 24.63C30.5791 26.3205 30.9414 28.1325 30.9417 29.9625Z" fill="#377373"/>
<path d="M50.5347 28.5703C50.2912 29.0931 49.8773 29.5185 49.3603 29.7772C48.8432 30.0359 48.2534 30.1128 47.6869 29.9953C46.2329 29.6773 44.7216 29.731 43.294 30.1515C41.8664 30.572 40.569 31.3455 39.5226 32.4V41.3063C39.5226 41.99 39.2498 42.6458 38.7643 43.1293C38.2788 43.6128 37.6203 43.8844 36.9337 43.8844C36.2471 43.8844 35.5886 43.6128 35.1031 43.1293C34.6176 42.6458 34.3448 41.99 34.3448 41.3063V26.3414C34.3294 26.0028 34.381 25.6646 34.4969 25.3459C34.6127 25.0272 34.7904 24.7344 35.0199 24.4841C35.4833 23.9786 36.1294 23.6772 36.816 23.6461C37.5026 23.615 38.1735 23.8568 38.6811 24.3183C39.1887 24.7799 39.4914 25.4233 39.5226 26.107C42.378 24.6804 45.6368 24.267 48.7601 24.9352C49.1413 25.019 49.4985 25.1876 49.805 25.4284C50.1115 25.6691 50.3594 25.9758 50.5301 26.3254C50.7007 26.675 50.7898 27.0586 50.7906 27.4473C50.7914 27.8361 50.7039 28.22 50.5347 28.5703Z" fill="#377373"/>
<path d="M23.3422 29.9625C23.3424 31.3662 22.8769 32.7307 22.018 33.8438C21.1591 34.9568 19.9549 35.756 18.5928 36.1172C18.3995 36.1707 18.1965 36.179 17.9995 36.1413C17.8025 36.1037 17.617 36.0211 17.4574 35.9001C17.2978 35.7791 17.1686 35.623 17.0797 35.4439C16.9909 35.2648 16.9449 35.0677 16.9453 34.868C16.9419 34.5869 17.0326 34.3127 17.2031 34.0886C17.3736 33.8645 17.6141 33.7033 17.8867 33.6305C18.7048 33.4219 19.4299 32.948 19.9478 32.2837C20.4656 31.6194 20.7466 30.8023 20.7466 29.9613C20.7466 29.1203 20.4656 28.3033 19.9478 27.6389C19.4299 26.9746 18.7048 26.5008 17.8867 26.2922C17.6141 26.2193 17.3736 26.0581 17.2031 25.8341C17.0326 25.61 16.9419 25.3358 16.9453 25.0547C16.9449 24.8549 16.9909 24.6578 17.0797 24.4787C17.1686 24.2997 17.2978 24.1435 17.4574 24.0225C17.617 23.9015 17.8025 23.8189 17.9995 23.7813C18.1965 23.7436 18.3995 23.7519 18.5928 23.8055C19.9553 24.1667 21.1597 24.9663 22.0187 26.0798C22.8776 27.1933 23.3429 28.5583 23.3422 29.9625Z" fill="#377373"/>
<path d="M16.9453 21.1875H7.55948C6.87287 21.1875 6.21438 20.9159 5.72887 20.4324C5.24337 19.9489 4.97061 19.2931 4.97061 18.6094C4.97061 17.9256 5.24337 17.2699 5.72887 16.7864C6.21438 16.3029 6.87287 16.0312 7.55948 16.0312H16.9453V21.1875Z" fill="url(#paint0_linear_22_206)"/>
<path d="M16.9453 43.8937H4.47168C3.78507 43.8937 3.12658 43.6221 2.64107 43.1386C2.15557 42.6551 1.88281 41.9994 1.88281 41.3156C1.88281 40.6319 2.15557 39.9761 2.64107 39.4926C3.12658 39.0091 3.78507 38.7375 4.47168 38.7375H16.9453V43.8937Z" fill="url(#paint1_linear_22_206)"/>
<path d="M186.163 34.2492C186.163 34.933 185.89 35.5887 185.405 36.0722C184.919 36.5557 184.261 36.8274 183.574 36.8274H177.088C177.481 37.3865 177.998 37.849 178.598 38.1796C179.198 38.5102 179.865 38.7002 180.55 38.7352H180.785H181.021H183.574C184.025 38.7326 184.468 38.8516 184.857 39.0797C185.351 39.3622 185.738 39.7993 185.957 40.3231C186.177 40.847 186.217 41.4282 186.07 41.9768C185.924 42.5254 185.6 43.0106 185.149 43.3572C184.698 43.7038 184.144 43.8924 183.574 43.8938H180.783C178.214 43.8938 175.75 42.8774 173.933 41.0683C172.116 39.2591 171.096 36.8054 171.096 34.2469C171.096 31.6884 172.116 29.2347 173.933 27.4255C175.75 25.6164 178.214 24.6 180.783 24.6H183.574C184.144 24.6014 184.698 24.7899 185.149 25.1365C185.6 25.4831 185.924 25.9684 186.07 26.5169C186.217 27.0655 186.177 27.6468 185.957 28.1706C185.738 28.6944 185.351 29.1315 184.857 29.4141C184.469 29.6446 184.026 29.7661 183.574 29.7656H180.783C180.058 29.765 179.343 29.9388 178.7 30.2722C178.057 30.6056 177.504 31.0887 177.088 31.6805H183.574C184.259 31.6805 184.916 31.9508 185.402 32.4323C185.887 32.9137 186.161 33.5671 186.163 34.2492Z" fill="#377373" stroke="#377373" stroke-width="0.1" stroke-miterlimit="10"/>
<path d="M239.117 34.2492C239.117 34.933 238.844 35.5887 238.359 36.0722C237.873 36.5557 237.215 36.8273 236.528 36.8273H230.047C230.44 37.3865 230.956 37.849 231.556 38.1796C232.156 38.5102 232.824 38.7002 233.509 38.7352H233.744H233.979H236.528C236.979 38.7329 237.422 38.8519 237.811 39.0797C238.304 39.3628 238.69 39.7998 238.908 40.3231C239.127 40.8465 239.166 41.427 239.02 41.9748C238.874 42.5226 238.551 43.0073 238.101 43.3537C237.65 43.7002 237.097 43.8892 236.528 43.8914H233.742C231.173 43.8914 228.709 42.875 226.892 41.0659C225.075 39.2568 224.055 36.803 224.055 34.2445C224.055 31.686 225.075 29.2323 226.892 27.4232C228.709 25.614 231.173 24.5977 233.742 24.5977H236.528C237.098 24.599 237.652 24.7876 238.103 25.1342C238.554 25.4808 238.878 25.966 239.024 26.5146C239.171 27.0632 239.131 27.6444 238.912 28.1683C238.692 28.6921 238.305 29.1292 237.811 29.4117C237.423 29.6428 236.98 29.765 236.528 29.7656H233.742C233.017 29.7648 232.302 29.9385 231.659 30.2719C231.015 30.6053 230.462 31.0885 230.047 31.6805H236.528C237.213 31.6805 237.87 31.9508 238.356 32.4323C238.841 32.9137 239.115 33.5671 239.117 34.2492Z" fill="#377373" stroke="#377373" stroke-width="0.1" stroke-miterlimit="10"/>
<path d="M234.973 38.7352C234.897 38.7352 234.817 38.7352 234.737 38.7352H234.502H234.973Z" stroke="#377373" stroke-width="0.1" stroke-miterlimit="10"/>
<path d="M74.2605 25.2469C73.9187 24.9072 73.4853 24.6736 73.0128 24.5746C72.5403 24.4756 72.0491 24.5155 71.5989 24.6892C71.1487 24.863 70.7589 25.1633 70.4768 25.5535C70.1948 25.9438 70.0326 26.4072 70.01 26.8875C68.6006 25.6706 66.8696 24.8828 65.0232 24.6181C63.1768 24.3533 61.293 24.6227 59.596 25.3942C57.8991 26.1656 56.4606 27.4066 55.452 28.9693C54.4433 30.532 53.9071 32.3505 53.9071 34.2082C53.9071 36.0659 54.4433 37.8844 55.452 39.4471C56.4606 41.0098 57.8991 42.2508 59.596 43.0223C61.293 43.7937 63.1768 44.0631 65.0232 43.7984C66.8696 43.5336 68.6006 42.7458 70.01 41.5289C70.0382 42.1775 70.3208 42.7892 70.7969 43.2327C71.273 43.6761 71.9048 43.9159 72.5566 43.9006C73.2083 43.8852 73.828 43.616 74.2826 43.1506C74.7371 42.6852 74.9903 42.0609 74.9877 41.4117V27C74.9883 26.6745 74.9244 26.3521 74.7996 26.0512C74.6748 25.7504 74.4916 25.477 74.2605 25.2469ZM63.6461 38.9297C62.7077 38.9297 61.7903 38.6524 61.0102 38.133C60.2301 37.6135 59.6222 36.8752 59.2637 36.0116C58.9051 35.148 58.8118 34.1978 58.9958 33.2814C59.1797 32.3649 59.6326 31.5235 60.297 30.8635C60.9614 30.2035 61.8075 29.7546 62.7282 29.5737C63.6489 29.3928 64.6028 29.488 65.4691 29.8472C66.3354 30.2065 67.0753 30.8136 67.5949 31.5918C68.1146 32.37 68.3908 33.2842 68.3884 34.2188C68.3847 35.4691 67.8835 36.6669 66.9946 37.5499C66.1057 38.4329 64.9016 38.9291 63.6461 38.9297Z" fill="#377373"/>
<path d="M147.784 24.6094C147.123 24.61 146.489 24.872 146.022 25.3379C145.554 25.8037 145.292 26.4353 145.292 27.0938V34.2914C145.292 35.5433 144.793 36.7439 143.904 37.6292C143.015 38.5144 141.809 39.0117 140.552 39.0117C139.295 39.0117 138.089 38.5144 137.2 37.6292C136.311 36.7439 135.812 35.5433 135.812 34.2914V27.0844C135.811 26.4257 135.548 25.7941 135.081 25.3283C134.613 24.8626 133.979 24.6006 133.317 24.6C132.656 24.6006 132.022 24.8626 131.555 25.3285C131.087 25.7943 130.825 26.4259 130.825 27.0844V34.3664C130.865 36.9075 131.907 39.331 133.726 41.1135C135.545 42.8961 137.995 43.8947 140.547 43.8938C142.298 43.8968 144.017 43.4261 145.52 42.532C145.72 42.9613 146.039 43.3247 146.439 43.5796C146.839 43.8346 147.304 43.9704 147.78 43.9711C148.108 43.9717 148.433 43.9078 148.736 43.7831C149.04 43.6584 149.315 43.4753 149.548 43.2443C149.78 43.0133 149.964 42.7389 150.089 42.4369C150.215 42.1349 150.279 41.8112 150.279 41.4844V27.0844C150.276 26.4273 150.012 25.7982 149.544 25.3344C149.077 24.8707 148.444 24.61 147.784 24.6094Z" fill="#377373"/>
<path d="M168.347 40.3992C168.145 39.9551 167.816 39.5799 167.402 39.3199C166.988 39.06 166.506 38.9267 166.017 38.9367C164.905 38.9549 163.821 38.5823 162.957 37.8844C162.376 37.4131 161.915 36.8115 161.613 36.1287C161.31 35.4459 161.174 34.7014 161.216 33.9562V18.5156C161.216 17.8561 160.953 17.2236 160.484 16.7572C160.016 16.2909 159.381 16.0289 158.719 16.0289C158.056 16.0289 157.421 16.2909 156.953 16.7572C156.485 17.2236 156.222 17.8561 156.222 18.5156V33.6726C156.222 33.7477 156.222 33.8203 156.233 33.893C156.189 35.2105 156.415 36.5231 156.898 37.7504C157.381 38.9778 158.111 40.094 159.042 41.0307C159.974 41.9674 161.087 42.7049 162.315 43.198C163.543 43.6911 164.858 43.9295 166.182 43.8984C166.589 43.8827 166.987 43.7673 167.339 43.5624C167.691 43.3575 167.987 43.0695 168.201 42.7237C168.415 42.3779 168.54 41.985 168.566 41.5796C168.591 41.1742 168.516 40.7688 168.347 40.3992Z" fill="#377373"/>
<path d="M206.42 40.3992C206.218 39.9548 205.89 39.5792 205.476 39.3191C205.061 39.0591 204.579 38.9261 204.09 38.9367C202.977 38.9555 201.894 38.5829 201.03 37.8844C200.514 37.4701 200.092 36.9519 199.791 36.3638C199.49 35.7758 199.317 35.1311 199.284 34.4719C199.272 34.301 199.272 34.1295 199.284 33.9586V29.7656H200.538C201.225 29.7656 201.883 29.494 202.369 29.0105C202.854 28.527 203.127 27.8713 203.127 27.1875C203.127 26.5037 202.854 25.848 202.369 25.3645C201.883 24.881 201.225 24.6094 200.538 24.6094H199.284V18.5156C199.284 17.8561 199.021 17.2236 198.553 16.7572C198.084 16.2909 197.449 16.0289 196.787 16.0289C196.125 16.0289 195.489 16.2909 195.021 16.7572C194.553 17.2236 194.29 17.8561 194.29 18.5156V24.6094H193.224C192.537 24.6094 191.879 24.881 191.393 25.3645C190.908 25.848 190.635 26.5037 190.635 27.1875C190.635 27.8713 190.908 28.527 191.393 29.0105C191.879 29.494 192.537 29.7656 193.224 29.7656H194.292V33.6797C194.292 33.7547 194.292 33.8273 194.292 33.9C194.267 34.6603 194.331 35.4208 194.483 36.1664C194.942 38.389 196.17 40.3805 197.953 41.7939C199.736 43.2073 201.96 43.9529 204.238 43.9008C204.647 43.8878 205.047 43.7743 205.402 43.5704C205.756 43.3665 206.055 43.0784 206.271 42.7319C206.487 42.3854 206.613 41.9912 206.639 41.5842C206.665 41.1772 206.59 40.7702 206.42 40.3992Z" fill="#377373"/>
<path d="M221.205 40.3992C221.003 39.9548 220.675 39.5792 220.26 39.3191C219.846 39.0591 219.364 38.9261 218.875 38.9367C217.762 38.9555 216.679 38.5829 215.815 37.8844C215.299 37.4703 214.876 36.9522 214.575 36.3642C214.273 35.7761 214.1 35.1312 214.066 34.4719C214.055 34.301 214.055 34.1295 214.066 33.9586V29.7656H215.321C216.007 29.7656 216.666 29.494 217.151 29.0105C217.637 28.527 217.91 27.8713 217.91 27.1875C217.91 26.5037 217.637 25.848 217.151 25.3645C216.666 24.881 216.007 24.6094 215.321 24.6094H214.066V18.5156C214.066 17.8561 213.803 17.2236 213.335 16.7572C212.867 16.2909 212.232 16.0289 211.569 16.0289C210.907 16.0289 210.272 16.2909 209.804 16.7572C209.335 17.2236 209.072 17.8561 209.072 18.5156V24.6094H208.004C207.317 24.6094 206.659 24.881 206.173 25.3645C205.688 25.848 205.415 26.5037 205.415 27.1875C205.415 27.8713 205.688 28.527 206.173 29.0105C206.659 29.494 207.317 29.7656 208.004 29.7656H209.072V33.6797C209.072 33.7547 209.072 33.8273 209.072 33.9C209.047 34.6603 209.111 35.4208 209.263 36.1664C209.722 38.389 210.951 40.3805 212.733 41.7939C214.516 43.2073 216.74 43.9529 219.018 43.9008C219.428 43.8885 219.828 43.7756 220.183 43.572C220.539 43.3684 220.838 43.0804 221.054 42.7338C221.271 42.3872 221.398 41.9927 221.424 41.5853C221.45 41.178 221.375 40.7705 221.205 40.3992Z" fill="#377373"/>
<path d="M123.487 16.0289C122.8 16.0289 122.142 16.3005 121.656 16.784C121.17 17.2675 120.898 17.9233 120.898 18.607V26.7187C119.465 25.5476 117.726 24.8087 115.885 24.5889C114.045 24.3691 112.179 24.6776 110.509 25.478C108.839 26.2785 107.433 27.5376 106.457 29.1071C105.481 30.6766 104.976 32.4911 105.001 34.337C105.026 36.1828 105.58 37.9831 106.598 39.5259C107.616 41.0687 109.055 42.2897 110.746 43.0451C112.438 43.8006 114.311 44.059 116.145 43.79C117.978 43.5209 119.697 42.7356 121.098 41.5266C121.126 42.1752 121.409 42.7869 121.885 43.2303C122.361 43.6738 122.993 43.9136 123.644 43.8982C124.296 43.8829 124.916 43.6136 125.37 43.1483C125.825 42.6829 126.078 42.0586 126.075 41.4094V18.607C126.075 17.9233 125.803 17.2675 125.317 16.784C124.832 16.3005 124.173 16.0289 123.487 16.0289ZM114.734 38.9297C113.795 38.9297 112.878 38.6524 112.098 38.1329C111.318 37.6135 110.71 36.8752 110.351 36.0116C109.993 35.148 109.9 34.1978 110.084 33.2814C110.267 32.3649 110.72 31.5235 111.385 30.8635C112.049 30.2035 112.895 29.7546 113.816 29.5737C114.737 29.3928 115.691 29.488 116.557 29.8472C117.423 30.2065 118.163 30.8136 118.683 31.5918C119.202 32.37 119.479 33.2842 119.476 34.2187C119.472 35.469 118.971 36.6669 118.082 37.5499C117.193 38.4329 115.989 38.9291 114.734 38.9297Z" fill="#377373"/>
<path d="M100.26 34.1297C100.26 32.8574 100.009 31.5975 99.52 30.422C99.0313 29.2465 98.3149 28.1784 97.4116 27.2786C96.5083 26.3789 95.4359 25.6652 94.2556 25.1782C93.0753 24.6913 91.8103 24.4406 90.5327 24.4406H90.375C88.8007 24.4596 87.255 24.862 85.8727 25.6125C85.7159 25.077 85.3889 24.6066 84.9407 24.2719C84.4926 23.9372 83.9476 23.7563 83.3874 23.7563C82.7008 23.7563 82.0423 24.0279 81.5568 24.5114C81.0713 24.9949 80.7986 25.6506 80.7986 26.3344V41.3086C80.7986 41.9924 81.0713 42.6481 81.5568 43.1316C82.0423 43.6151 82.7008 43.8867 83.3874 43.8867C84.074 43.8867 84.7325 43.6151 85.218 43.1316C85.7035 42.6481 85.9763 41.9924 85.9763 41.3086V32.7938C86.2617 31.8282 86.8495 30.9788 87.654 30.3696C88.4585 29.7603 89.4374 29.423 90.448 29.407H90.5233C91.1463 29.4067 91.7633 29.5288 92.339 29.7661C92.9147 30.0035 93.4377 30.3516 93.8781 30.7904C94.3186 31.2293 94.6679 31.7503 94.9059 32.3237C95.144 32.8971 95.2662 33.5116 95.2656 34.132V41.4141C95.2855 42.0594 95.557 42.6718 96.0224 43.1213C96.4879 43.5708 97.1108 43.8221 97.7592 43.8221C98.4075 43.8221 99.0304 43.5708 99.4959 43.1213C99.9614 42.6718 100.233 42.0594 100.253 41.4141V34.1297H100.26Z" fill="#377373"/>
<defs>
<linearGradient id="paint0_linear_22_206" x1="4.96826" y1="18.607" x2="16.9547" y2="18.607" gradientUnits="userSpaceOnUse">
<stop stop-color="#377373" stop-opacity="0"/>
<stop offset="0.29" stop-color="#377373" stop-opacity="0.37"/>
<stop offset="0.6" stop-color="#377373" stop-opacity="0.71"/>
<stop offset="0.85" stop-color="#377373" stop-opacity="0.92"/>
<stop offset="1" stop-color="#377373"/>
</linearGradient>
<linearGradient id="paint1_linear_22_206" x1="1.87575" y1="41.3156" x2="16.9547" y2="41.3156" gradientUnits="userSpaceOnUse">
<stop stop-color="#377373" stop-opacity="0"/>
<stop offset="0.29" stop-color="#377373" stop-opacity="0.37"/>
<stop offset="0.6" stop-color="#377373" stop-opacity="0.71"/>
<stop offset="0.85" stop-color="#377373" stop-opacity="0.92"/>
<stop offset="1" stop-color="#377373"/>
</linearGradient>
</defs>
</svg>
