<svg width="241" height="60" viewBox="60" fill="none" xmlns="http://www.w3.org/2000/svg">
<path d="M30.9417 29.9625C30.9414 31.7925 30.5791 33.6045 29.8755 35.295C29.1719 36.9856 28.1408 38.5215 26.8411 39.8152C25.5414 41.1088 23.9985 42.1349 22.3006 42.8347C20.6027 43.5345 18.7829 43.8944 16.9453 43.8937V38.7375C19.2823 38.7375 21.5235 37.813 23.176 36.1674C24.8285 34.5217 25.7569 32.2898 25.7569 29.9625C25.7569 27.6352 24.8285 25.4033 23.176 23.7576C21.5235 22.112 19.2823 21.1875 16.9453 21.1875V16.0313C18.7829 16.0306 20.6027 16.3905 22.3006 17.0903C23.9985 17.7901 25.5414 18.8162 26.8411 20.1098C28.1408 21.4035 29.1719 22.9394 29.8755 24.63C30.5791 26.3205 30.9414 28.1325 30.9417 29.9625Z" fill="#377373"/>
<path d="M23.3422 29.9625C23.3424 31.3662 22.8769 32.7307 22.018 33.8438C21.1591 34.9568 19.9549 35.756 18.5928 36.1172C18.3995 36.1707 18.1965 36.179 17.9995 36.1413C17.8025 36.1037 17.617 36.0211 17.4574 35.9001C17.2978 35.7791 17.1686 35.623 17.0797 35.4439C16.9909 35.2648 16.9449 35.0677 16.9453 34.868C16.9419 34.5869 17.0326 34.3127 17.2031 34.0886C17.3736 33.8645 17.6141 33.7033 17.8867 33.6305C18.7048 33.4219 19.4299 32.948 19.9478 32.2837C20.4656 31.6194 20.7466 30.8023 20.7466 29.9613C20.7466 29.1203 20.4656 28.3033 19.9478 27.6389C19.4299 26.9746 18.7048 26.5008 17.8867 26.2922C17.6141 26.2193 17.3736 26.0581 17.2031 25.8341C17.0326 25.61 16.9419 25.3358 16.9453 25.0547C16.9449 24.8549 16.9909 24.6578 17.0797 24.4787C17.1686 24.2997 17.2978 24.1435 17.4574 24.0225C17.617 23.9015 17.8025 23.8189 17.9995 23.7813C18.1965 23.7436 18.3995 23.7519 18.5928 23.8055C19.9553 24.1667 21.1597 24.9663 22.0187 26.0798C22.8776 27.1933 23.3429 28.5583 23.3422 29.9625Z" fill="#377373"/>
<path d="M16.9453 21.1875H7.55948C6.87287 21.1875 6.21438 20.9159 5.72887 20.4324C5.24337 19.9489 4.97061 19.2931 4.97061 18.6094C4.97061 17.9256 5.24337 17.2699 5.72887 16.7864C6.21438 16.3029 6.87287 16.0312 7.55948 16.0312H16.9453V21.1875Z" fill="url(#paint0_linear_22_206)"/>
<path d="M16.9453 43.8937H4.47168C3.78507 43.8937 3.12658 43.6221 2.64107 43.1386C2.15557 42.6551 1.88281 41.9994 1.88281 41.3156C1.88281 40.6319 2.15557 39.9761 2.64107 39.4926C3.12658 39.0091 3.78507 38.7375 4.47168 38.7375H16.9453V43.8937Z" fill="url(#paint1_linear_22_206)"/>
<defs>
<linearGradient id="paint0_linear_22_206" x1="4.96826" y1="18.607" x2="16.9547" y2="18.607" gradientUnits="userSpaceOnUse">
<stop stop-color="#377373" stop-opacity="0"/>
<stop offset="0.29" stop-color="#377373" stop-opacity="0.37"/>
<stop offset="0.6" stop-color="#377373" stop-opacity="0.71"/>
<stop offset="0.85" stop-color="#377373" stop-opacity="0.92"/>
<stop offset="1" stop-color="#377373"/>
</linearGradient>
<linearGradient id="paint1_linear_22_206" x1="1.87575" y1="41.3156" x2="16.9547" y2="41.3156" gradientUnits="userSpaceOnUse">
<stop stop-color="#377373" stop-opacity="0"/>
<stop offset="0.29" stop-color="#377373" stop-opacity="0.37"/>
<stop offset="0.6" stop-color="#377373" stop-opacity="0.71"/>
<stop offset="0.85" stop-color="#377373" stop-opacity="0.92"/>
<stop offset="1" stop-color="#377373"/>
</linearGradient>
</defs>
</svg>
